<?xml version="1.0" encoding="utf-8"?>
<!-- Generator: Adobe Illustrator 15.0.0, SVG Export Plug-In . SVG Version: 6.00 Build 0)  -->
<!DOCTYPE svg PUBLIC "-//W3C//DTD SVG 1.1//EN" "http://www.w3.org/Graphics/SVG/1.1/DTD/svg11.dtd">
<svg version="1.1" id="Layer_1" xmlns="http://www.w3.org/2000/svg" xmlns:xlink="http://www.w3.org/1999/xlink" x="0px" y="0px"
	 width="612px" height="792px" viewBox="0 0 612 792" enable-background="new 0 0 612 792" xml:space="preserve">
<g>
	<path fill-rule="evenodd" clip-rule="evenodd" fill="#FFFFFF" d="M114,229.497c127.984,0,255.968,0,383.952,0
		c0,111.237,0,222.47,0,333.708c-127.984,0-255.968,0-383.952,0C114,451.968,114,340.735,114,229.497z M136.497,254.244
		c0,95.487,0,190.977,0,286.464c112.986,0,225.972,0,338.958,0c0-66.49,0-132.984,0-199.475c-73.49,0-146.982,0-220.473,0
		c-12.25-29.994-23.108-61.381-37.495-89.239c-26.747,0-53.494,0-80.24,0C136.374,252.12,136.433,253.18,136.497,254.244z
		 M243.734,251.994c7.411,20.836,17.936,45.056,26.997,66.742c68.241,0,136.482,0,204.725,0c0-22.248,0-44.495,0-66.742
		C398.216,251.994,320.974,251.994,243.734,251.994z"/>
	<path fill-rule="evenodd" clip-rule="evenodd" fill="#FFFFFF" d="M362.969,273.741c0,7.499,0,14.998,0,22.497
		c-7.499,0-14.998,0-22.497,0c0-7.249,0-14.498,0-21.747C346.533,272.804,355.674,274.195,362.969,273.741z"/>
	<path fill-rule="evenodd" clip-rule="evenodd" fill="#FFFFFF" d="M407.963,273.741c0,7.499,0,14.998,0,22.497
		c-7.499,0-14.998,0-22.497,0c0-7.249,0-14.498,0-21.747C391.527,272.804,400.668,274.195,407.963,273.741z"/>
	<path fill-rule="evenodd" clip-rule="evenodd" fill="#FFFFFF" d="M452.958,273.741c0,7.499,0,14.998,0,22.497
		c-7.499,0-14.998,0-22.497,0c0-7.249,0-14.498,0-21.747C436.521,272.804,445.663,274.195,452.958,273.741z"/>
	<path fill-rule="evenodd" clip-rule="evenodd" fill="#FFFFFF" d="M206.988,376.479c6.999,0,13.999,0,20.998,0
		c5.639,31.089-14.464,104.449,17.998,108.736c29.993,3.961,24.747-31.623,24.747-60.742c0-16.376,0-32.414,0-47.994
		c7.499,0,14.998,0,22.497,0c-4.339,34.409,7.475,82.582-3.75,106.486c-3.924,8.358-12.241,16.98-20.998,20.998
		c-18.013,8.264-38.049,2.477-48.744-7.499c-22.851-21.315-11.7-77.194-14.248-117.736
		C205.456,377.445,206.046,376.786,206.988,376.479z"/>
	<path fill-rule="evenodd" clip-rule="evenodd" fill="#FFFFFF" d="M360.719,421.473c11.147-14.1,20.349-30.145,30.746-44.994
		c7.245,2.754,11.75,8.249,18.748,11.249c-10.85,18.897-23.646,35.846-35.245,53.994c10.998,18.997,24.496,35.496,35.245,54.743
		c-6.248,3.75-12.249,7.748-17.998,11.998c-10.8-14.697-20.696-30.297-30.746-45.744c-10.8,14.697-20.696,30.297-30.746,45.744
		c-6.354-3.895-11.892-8.605-18.747-11.998c11.098-18.648,23.897-35.596,35.245-53.993c-10.998-18.998-24.496-35.497-35.245-54.744
		c7.328-2.92,11.43-9.068,19.497-11.249C340.57,392.127,351.371,406.074,360.719,421.473z"/>
</g>
</svg>
