<?xml version="1.0" encoding="utf-8"?>
<!-- Generator: Adobe Illustrator 21.1.0, SVG Export Plug-In . SVG Version: 6.00 Build 0)  -->
<svg version="1.1" id="Layer_1" xmlns="http://www.w3.org/2000/svg" xmlns:xlink="http://www.w3.org/1999/xlink" x="0px" y="0px"
	 viewBox="0 0 298 99.2" style="enable-background:new 0 0 298 99.2;" xml:space="preserve">
<style type="text/css">
	.st0{fill:#F9F9FA;}
	.st1{fill:#EF4C7C;}
</style>
<g>
	<path class="st0" d="M17.7,78.1c-2.6,0-4.9-0.5-7-1.4c-2.1-0.9-3.8-2.2-5.1-4c-1.3-1.7-1.9-3.8-1.9-6.3c0-4.6,2.3-8.1,6.9-10.5
		c4.6-2.4,12.2-4,22.8-4.8c-0.1-1.9-0.5-3.5-1.2-5.1c-0.7-1.5-1.9-2.8-3.4-3.7c-1.5-1-3.6-1.4-6.3-1.4c-1.8,0-3.5,0.2-5.2,0.7
		c-1.7,0.5-3.3,1.1-4.9,1.9c-1.6,0.8-3,1.5-4.2,2.3L5.5,41c1.4-0.9,3.1-1.8,5-2.7c1.9-0.9,4-1.7,6.3-2.3c2.3-0.6,4.6-0.9,6.9-0.9
		c3.7,0,6.8,0.7,9.3,2.1c2.5,1.4,4.3,3.4,5.6,5.9c1.2,2.5,1.9,5.5,1.9,8.8v25.1h-5.8l-0.6-5.6h-0.3c-2.2,1.8-4.8,3.3-7.6,4.6
		C23.4,77.4,20.6,78.1,17.7,78.1z M19.6,72.4c2.3,0,4.6-0.5,6.9-1.6c2.3-1,4.6-2.5,7-4.5V55.8c-5.8,0.4-10.4,1.1-13.7,2.1
		c-3.3,0.9-5.7,2.1-7,3.4c-1.4,1.3-2.1,2.9-2.1,4.7c0,1.6,0.4,2.8,1.3,3.7c0.8,0.9,1.9,1.6,3.3,2.1C16.6,72.2,18,72.4,19.6,72.4z"/>
	<path class="st0" d="M61.9,78.1c-4,0-7.7-0.6-11.2-1.9c-3.5-1.3-6.5-2.8-8.9-4.5l3.2-4.6c2.4,1.7,5,3,7.8,4s6.2,1.5,9.9,1.5
		c3.5,0,6.1-0.6,7.7-1.9c1.7-1.2,2.5-2.7,2.5-4.5c0-0.8-0.2-1.5-0.5-2.2c-0.3-0.7-0.9-1.3-1.7-1.9c-0.8-0.6-2.1-1.2-3.8-1.8
		c-1.7-0.6-3.9-1.1-6.7-1.7c-5.3-1.1-9.3-2.6-12-4.5c-2.7-1.9-4-4.4-4-7.5c0-3.3,1.4-6,4.3-8.2c2.9-2.2,7.1-3.4,12.7-3.4
		c3.1,0,6.1,0.5,9.1,1.6c2.9,1,5.4,2.3,7.5,3.7l-3.4,4.5c-1.9-1.3-4-2.3-6.4-3.1c-2.3-0.8-4.8-1.2-7.4-1.2c-2.3,0-4.1,0.3-5.5,0.8
		c-1.4,0.6-2.4,1.3-3,2.2c-0.6,0.9-0.9,1.9-0.9,2.9c0,1.8,0.9,3.2,2.8,4.1c1.9,0.9,4.9,1.8,9.1,2.7c4.5,1,8,2,10.4,3.2
		c2.4,1.2,4.1,2.5,5.1,4c0.9,1.5,1.4,3.4,1.4,5.4c0,2.2-0.7,4.2-2.1,6.1c-1.4,1.9-3.5,3.3-6.1,4.5S65.8,78.1,61.9,78.1z"/>
	<path class="st1" d="M71.1,98.2c-1.5,0-3-0.2-4.3-0.5c-1.3-0.3-2.5-0.8-3.5-1.3l2.4-5.7c0.8,0.4,1.7,0.7,2.7,1
		c1,0.3,2.1,0.4,3.1,0.4c2,0,3.8-0.3,5.3-1c1.5-0.7,3-1.7,4.3-3.2c1.4-1.4,2.9-3.4,4.5-5.9l2.9-4.7L76.5,28h7.6l6.4,27.4
		c0.5,2.2,1,4.6,1.5,7.5c0.5,2.8,1,5.3,1.4,7.5h0.4c1.1-2.2,2.5-4.6,4-7.5c1.5-2.8,3-5.3,4.2-7.5L118.6,28h8.1L93.3,82.2
		c-2.2,3.6-4.4,6.6-6.5,9c-2.1,2.4-4.4,4.1-7,5.3C77.3,97.6,74.4,98.2,71.1,98.2z"/>
	<path class="st0" d="M124.1,77.1V36.2h5.7l0.6,6.9h0.3c2.1-2.2,4.4-4.1,6.9-5.6c2.5-1.5,5.3-2.3,8.5-2.3c4.8,0,8.4,1.4,10.7,4.2
		c2.3,2.8,3.5,6.9,3.5,12.3v25.4h-7V52.6c0-3.9-0.7-6.7-2.2-8.6c-1.5-1.9-3.8-2.8-7.2-2.8c-2.4,0-4.6,0.6-6.5,1.9
		c-1.9,1.2-4,3.1-6.4,5.5v28.5H124.1z"/>
	<path class="st0" d="M184.1,78.1c-4.3,0-8.1-0.8-11.4-2.5c-3.4-1.7-6-4.1-8-7.3c-2-3.2-2.9-7-2.9-11.5c0-4.6,1-8.5,3.1-11.7
		c2.1-3.2,4.9-5.6,8.3-7.3c3.5-1.7,7.3-2.5,11.4-2.5c3.3,0,6.2,0.6,8.7,1.8c2.5,1.2,4.5,2.6,6.2,4.2l-3.5,4.5
		c-1.7-1.5-3.4-2.6-5.3-3.4c-1.8-0.8-3.8-1.2-5.9-1.2c-3.1,0-5.9,0.7-8.3,2c-2.4,1.3-4.3,3.2-5.6,5.5c-1.3,2.4-2,5.1-2,8.3
		c0,3.1,0.7,5.9,2,8.2c1.3,2.3,3.2,4.1,5.5,5.4c2.4,1.3,5.1,1.9,8.3,1.9c2.5,0,4.8-0.5,6.9-1.5c2.1-1,4-2.2,5.7-3.7l3.1,4.5
		c-2.3,2-4.8,3.6-7.6,4.7C190,77.5,187.1,78.1,184.1,78.1z"/>
	<path class="st1" d="M248.9,78.3c-4,0-7.2-1-9.6-3.1c-2.4-2.1-3.6-5.2-3.6-9.2c0-0.9,0.1-1.8,0.2-2.6c0.1-0.9,0.3-1.8,0.5-2.8
		l6-26.3h-18l1.3-6.3h25.7l-7.3,33.3c-0.1,0.5-0.2,1.1-0.3,1.6c-0.1,0.5-0.1,1-0.1,1.5c0,2.6,0.7,4.4,2.1,5.6
		c1.4,1.1,3.2,1.7,5.4,1.7c1.5,0,3.1-0.2,4.5-0.7c1.5-0.5,3.1-1.1,4.8-1.8l1.8,5.9c-2.1,0.9-4.2,1.7-6.3,2.3
		C254,78,251.6,78.3,248.9,78.3z M248.4,17.6c-1.6,0-3-0.5-4.1-1.4c-1.1-0.9-1.7-2.3-1.7-4c0-1.3,0.3-2.4,1-3.5
		c0.6-1,1.5-1.9,2.5-2.5c1-0.6,2.2-1,3.5-1c1.8,0,3.2,0.5,4.2,1.4c1.1,0.9,1.6,2.3,1.6,4c0,2-0.7,3.6-2.1,4.9
		C252,16.9,250.4,17.6,248.4,17.6z"/>
	<path class="st0" d="M277,78.1c-5.3,0-9.5-1.9-12.8-5.6c-3.3-3.7-4.9-9-4.9-15.8c0-4.4,0.9-8.3,2.6-11.5c1.7-3.2,4-5.7,6.8-7.5
		c2.8-1.7,5.8-2.6,9.1-2.6c2.5,0,4.7,0.5,6.7,1.4c2,0.9,3.8,2.2,5.6,3.8h0.2l-0.3-7.5V17.1h7v59.9h-5.7l-0.6-5.4h-0.3
		c-1.7,1.7-3.7,3.2-6,4.5C282,77.4,279.6,78.1,277,78.1z M278.5,72.2c2,0,4-0.5,5.9-1.5c1.9-1,3.8-2.5,5.6-4.5V45.8
		c-1.9-1.7-3.7-3-5.4-3.7c-1.8-0.7-3.5-1.1-5.3-1.1c-2.4,0-4.5,0.6-6.4,1.9c-1.9,1.3-3.5,3.1-4.6,5.5c-1.2,2.4-1.7,5.1-1.7,8.2
		c0,4.9,1.1,8.7,3.2,11.4C271.8,70.8,274.8,72.2,278.5,72.2z"/>
</g>
</svg>
